# This file uses centimeters as units for non-parametric coordinates.

v -500.000000 0.000000 500.000000
v 500.000000 0.000000 500.000000
v -500.000000 1000.000000 500.000000
v 500.000000 1000.000000 500.000000
v -500.000000 1000.000000 -500.000000
v 500.000000 1000.000000 -500.000000
v -500.000000 0.000000 -500.000000
v 500.000000 0.000000 -500.000000
vt 0.375000 0.000000
vt 0.625000 0.000000
vt 0.375000 0.250000
vt 0.625000 0.250000
vt 0.375000 0.500000
vt 0.625000 0.500000
vt 0.375000 0.750000
vt 0.625000 0.750000
vt 0.375000 1.000000
vt 0.625000 1.000000
vn 0.000000 0.000000 -1.000000
vn 0.000000 0.000000 -1.000000
vn 0.000000 0.000000 -1.000000
vn 0.000000 0.000000 -1.000000
vn 0.000000 -1.000000 0.000000
vn 0.000000 -1.000000 0.000000
vn 0.000000 -1.000000 0.000000
vn 0.000000 -1.000000 0.000000
vn 0.000000 0.000000 1.000000
vn 0.000000 0.000000 1.000000
vn 0.000000 0.000000 1.000000
vn 0.000000 0.000000 1.000000
vn 0.000000 1.000000 0.000000
vn 0.000000 1.000000 0.000000
vn 0.000000 1.000000 0.000000
vn 0.000000 1.000000 0.000000
f 1/1/1 3/3/2 2/2/3
f 3/3/2 4/4/4 2/2/3
f 3/3/5 5/5/6 4/4/7
f 5/5/6 6/6/8 4/4/7
f 5/5/9 7/7/10 6/6/11
f 7/7/10 8/8/12 6/6/11
f 7/7/13 1/9/14 8/8/15
f 1/9/14 2/10/16 8/8/15
